<?xml version="1.0" encoding="UTF-8"?>
<svg id="Layer_1" data-name="Layer 1" xmlns="http://www.w3.org/2000/svg" version="1.1" viewBox="0 0 595.3 559.1">
  <defs>
    <style>
      .cls-1 {
        fill: #ed1d25;
        stroke-width: 0px;
      }
    </style>
  </defs>
  <path class="cls-1" d="M41.8,314.3c3.3-4.3,7.8-5.2,13.1-5.2,55.1.2,110.2.1,165.4.2,3.6,0,6.2-.9,8.8-3.5,10.4-10.7,21.1-21.3,31.8-31.8,2.1-2,2.9-4.1,2.9-7-.1-10.3-.1-20.7,0-31,.3-19,15.3-35.8,33.5-37.5,20-1.9,37.8,10.5,42.1,29.6.9,3.9,1.2,7.9,1.2,11.9.1,20.8,0,41.6,0,62.5q0,6.8,6.6,6.8c17.3,0,34.6.5,52-.1,15.8-.6,34.3,11.7,35,33.5.3,8.7-2.7,16.7-8.8,23.2-2.2,2.3-2.2,3.5-.1,5.9,12,13.8,11.8,32.2-.4,45.6-2,2.2-1.6,3.6,0,5.3,7.3,7.8,10.1,16.9,8.8,27.4-.8,6.7-3.4,12.6-8,17.3-2.9,3-2.7,4.5,0,7.5,9.1,10.3,11,22.4,5.7,34.8-5.2,12.3-14.7,19.9-28.7,20.6-1,0-2-.1-3-.1H54.1c-1.5,0-3,.1-4.5.2-4.3.1-5.9-3.3-7.8-6.2,0-70,0-139.9,0-209.9ZM298.6,514.1h95.4c3,0,6-.2,8.9-.8,8.2-1.5,13.7-8,13.8-16.5,0-8.8-5.4-15.3-14-16.7-11.1-1.7-22.3-.5-33.4-.7-11.8-.2-11.6,0-11.9-11.7-.1-4.6,1.5-5.5,5.7-5.4,12.6.2,25.3.2,38,0,8-.1,14.9-6.7,15.5-14.2.8-9.9-4.2-17.4-13-18.9-11.2-1.9-22.6-.6-33.9-.8-12.5-.2-12.4,0-12.3-12.7,0-3.6,1.3-4.5,4.7-4.4,12.2.2,24.3.1,36.5,0,11,0,18.1-6.6,18.1-16.8s-7.1-17.1-18.4-17.2h-28.5c-12.6,0-12.4,0-12.4-12.6,0-3.5,1.1-4.5,4.5-4.5,12.2.2,24.3.1,36.5.1,11,0,18.2-6.8,18.2-16.8.1-10.5-7-17.1-18.3-17.2h-63.5c-8.8,0-11.4-2.6-11.5-11.2v-73.5c0-3.9-.4-7.7-1.5-11.3-2.7-9.6-12.8-16.1-22.7-14.8-10.5,1.3-18.5,10.1-18.7,20.7-.2,12-.1,24,0,36,0,4.3-1.2,7.8-4.3,10.8-13.1,13-26.2,26.1-39.2,39.2-2.9,2.9-6.2,4.2-10.3,4.2-8.7-.1-17.3.2-26-.1-4.6-.2-5.5,1.4-5.5,5.6.1,59,.1,117.9,0,176.9,0,4.6,1.4,5.5,5.7,5.5,32.8-.3,65.3-.2,97.8-.2ZM58.8,419.8c0,29.5.1,59-.1,88.5,0,4.2,1.2,5.4,5.3,5.3,13.8-.2,27.7-.2,41.5,0,3.1,0,4.4-.8,4.4-4.2-.1-59.6-.1-119.3,0-178.9,0-3.3-1.1-4.2-4.3-4.2-13.8.1-27.7.3-41.5-.1-4.6-.1-5.4,1.5-5.4,5.7.1,29.2.1,58.5.1,87.9ZM178.6,419.7c0-29.5-.1-58.9.1-88.4,0-3.8-.8-5.2-4.9-5.2-14.1.3-28.3.2-42.4,0-3.5,0-4.5,1.1-4.5,4.6.1,59.4.1,118.9,0,178.3,0,4,1.3,5.2,5.2,5.1,13.3-.2,26.6-.1,39.9-.1q6.7,0,6.7-6.5c-.1-29.2-.1-58.5-.1-87.8Z"/>
  <path class="cls-1" d="M300.6,19.4c5.9,3.7,7.6,10.3,10.7,15.9,5.7,10.3,11,20.9,16.3,31.4,1.1,2.2,2.3,3.5,5.1,3.9,16.3,2.1,32.5,4.6,48.8,6.8,4.2.6,7.8,1.8,9.4,6.2,1.7,4.5-.6,7.7-3.7,10.5-11.5,10.6-23,21.2-34.6,31.7-2.4,2.1-3,4.1-2.3,7.3,2.9,14.5,5.5,29,8,43.6.7,4.1,1.1,8.5-3,11.3-3.8,2.6-7.5,1.5-11.3-.4-14.1-7.1-28.3-14.1-42.4-21.2-2.8-1.4-5-1.5-7.8-.1-14.1,7.2-28.3,14.1-42.4,21.3-4,2-7.8,3.1-11.7.2-3.8-2.8-3.5-7-2.8-11,2.6-14.9,5.3-29.7,8.2-44.5.5-2.5.1-4-1.7-5.7-11.2-10.2-22.3-20.5-33.5-30.7-2.2-2-4.4-4-5.5-7-1.8-4.9,1-10,6.8-11,7.8-1.4,15.8-2.3,23.6-3.4,9-1.3,18-2.7,27.1-3.7,2.9-.3,4.4-1.4,5.6-3.9,6.8-13.2,13.8-26.2,20.5-39.4,1.6-3.2,3.6-5.9,6.5-7.9,2.1-.2,4.1-.2,6.1-.2ZM256.9,163.5c0-.3-.2.8.2,1.2,1.1.9,2.2-.2,3.1-.7,10.3-5.1,20.6-10.1,30.8-15.4,4.5-2.4,8.7-2.3,13.2,0,10.2,5.3,20.5,10.3,30.8,15.4.9.5,2,1.7,3.1.6.8-.7.3-1.9.1-2.9-2-10.8-3.6-21.6-6-32.3-1.3-5.6.8-9.2,4.6-12.7,7.8-7.1,15.4-14.2,23.1-21.3.9-.8,2.6-1.5,1.9-3.1-.5-1.2-2-.9-3.2-1.1-10.9-1.4-21.7-2.8-32.6-4.2-5.4-.7-9-3.1-11.5-8.2-4.6-9.6-9.8-18.9-14.6-28.4-1.8-3.6-3.2-3.4-5,0-4.9,9.5-10.1,18.8-14.6,28.4-2.4,5.2-6.1,7.5-11.5,8.2-10.9,1.4-21.7,2.8-32.6,4.2-1.1.2-2.6-.1-3.1,1.1-.6,1.3.8,2,1.6,2.7,7.7,7.2,15.3,14.3,23.1,21.3,4,3.6,6.3,7.1,5,13-2.2,11.1-3.8,22.1-5.9,34.2Z"/>
  <path class="cls-1" d="M553.5,159.4c-10.3,11.6-22.5,21.1-33.8,31.6-2.7,2.5-3.7,4.8-3,8.2,2.4,12.9,4.7,25.8,7.2,38.6.8,3.9,0,6.9-2.8,9.4-3.2,2.8-6.6,2.5-10.2.7-13-6.4-26-12.6-39-19.1-2.7-1.3-4.8-1.4-7.4,0-11.7,6-23.5,11.8-35.3,17.6-1.8.9-3.6,1.8-5.5,2.4-6.1,1.9-11.6-1.7-11-8.1.9-8.9,2.7-17.7,4.2-26.5.9-5.6,1.7-11.2,3.1-16.6.6-2.4-.2-3.7-1.8-5.1-9.5-8.6-19-17.1-28.5-25.8-3.1-2.8-6.6-5.3-6.9-10-.3-5.1,4-8.4,11-9.2,14-1.8,27.9-3.9,41.9-5.7,2.7-.3,4-1.5,5.2-3.8,6.2-12,12.6-23.8,18.8-35.8,1.8-3.5,4.2-5.8,8.5-5.8s6.8,2.2,8.6,5.7c6.1,11.6,12.4,23.2,18.3,34.9,1.6,3.2,3.7,4.8,7.1,5.2,13.2,1.7,26.3,3.7,39.5,5.2,4.9.6,9,1.9,11.9,6.1-.1,1.9-.1,3.9-.1,5.9ZM410.8,162.6c8.1,7.3,15,13.7,22.1,20,3.4,3,6.2,6.1,5.3,11.1-.8,4.2-1.7,8.4-2.5,12.7-1.1,6.1-2.1,12.2-3.3,19.2,10.6-5.2,20.3-9.9,30-14.7,3.7-1.9,7.2-2.1,11-.2,8.6,4.3,17.3,8.5,26,12.7,1.1.6,2.4,1.7,3.6.6.9-.8.5-2.2.3-3.3-1.5-7.8-2.8-15.7-4.5-23.5-1.2-5.6-.4-10.2,4.4-14.2,7.5-6.3,14.4-13.1,22-20.1-3-.5-5.3-1-7.8-1.3-8.2-1.1-16.4-2.2-24.7-3.2-6.4-.8-9-5.6-11.6-10.5-4.2-8.1-8.5-16.1-13.1-25-5,9.4-9.8,17.8-13.9,26.5-2.8,5.9-7.1,8.6-13.5,9.2-9.4.8-18.9,2.4-29.8,4Z"/>
  <path class="cls-1" d="M41.8,153.4c4.2-6.7,11.5-5.9,17.8-6.9,11-1.7,22-2.9,33-4.3,3.8-.5,6.1-2.2,7.8-5.8,5.6-11.2,11.6-22.1,17.4-33.2,2-3.9,4.4-7,9.4-7s7.1,3.3,9.1,7.2c6,11.7,12.3,23.2,18.4,34.9,1,1.9,2.1,2.9,4.5,3.2,14,1.8,27.9,3.8,41.9,5.8,1.3.2,2.6.3,3.9.6,7.9,2.1,10.2,9.5,4.3,15.1-8.7,8.3-17.7,16.1-26.5,24.2-.2.2-.5.4-.8.6-5.5,3.8-7.6,8.2-5.6,15.5,3,10.8,4.4,22.1,6.3,33.2.7,4,1,8.1-2.8,11s-7.6,1.7-11.3-.1c-12.6-6.2-25.1-12.3-37.6-18.7-2.7-1.4-4.8-1.3-7.4,0-12.5,6.3-25.1,12.3-37.6,18.5-3.8,1.9-7.5,3.2-11.2.2-3.6-2.8-3.9-6.4-3-10.7,2.6-12.5,4.7-25.1,7-37.6.6-3.4-.3-5.7-3-8.2-11.3-10.5-23.5-20.1-33.8-31.6-.2-1.9-.2-3.9-.2-5.9ZM162.9,225.6c-1.9-10.6-3.2-20.1-5.4-29.4-1.4-6.1.7-10.1,5.1-13.9,7.1-6.1,13.9-12.6,21.6-19.7-10-1.5-18.8-3.4-27.7-3.9-9-.4-13.7-4.8-17.2-12.5-3.4-7.8-7.9-15.1-12.4-23.3-5.4,10.2-10.5,19.3-15.2,28.6-2,4-5.2,5.9-9.3,6.6-3.4.6-6.9.8-10.4,1.2-7.2,1-14.4,2.1-22.2,3.2,8,7.4,15.2,14.4,22.8,20.9,4.2,3.6,4.8,7.7,3.9,12.5-1.4,8-3,16-4.5,23.9-.2,1.3-.8,2.9.2,3.8,1.4,1.4,2.8-.1,4-.7,8.4-4,16.8-8,25.1-12.2,4.3-2.2,8.2-1.8,12.3.4,9.4,4.9,18.8,9.4,29.3,14.5Z"/>
  <path class="cls-1" d="M49.6,530.4c1.5-.1,3-.2,4.5-.2h345.6c1,0,2,.1,3,.1-.1.3-.1.6-.1.9H49.8c-.1-.3-.2-.5-.2-.8Z"/>
  <path class="cls-1" d="M49.6,530.4c.1.3.1.5.2.8h-1q-7,0-7-7c1.9,2.9,3.5,6.3,7.8,6.2Z"/>
  <path class="cls-1" d="M161.6,488.4c0,9.7.9,8.7-8.9,8.7s-8.8.9-8.8-8.8-1-8.9,9.2-8.9c9.5-.1,8.4-.9,8.5,9Z"/>
  <path class="cls-1" d="M152.3,462.4c-9.8-.1-8.4,1.3-8.5-8.4-.1-9.8-.9-8.6,8.9-8.6s8.7-1.1,8.8,8.8c.1,8.2,0,8.2-9.2,8.2Z"/>
  <path class="cls-1" d="M143.8,419.6c0-1.5.1-3,0-4.5-.1-2.7,1.1-3.7,3.8-3.9,13.2-.8,14.7.7,13.3,14.1-.2,2-.9,3-3,3-1.8-.1-3.6,0-5.5,0q-8.6,0-8.6-8.7Z"/>
</svg>