<?xml version="1.0" encoding="UTF-8"?>
<svg id="Layer_1" data-name="Layer 1" xmlns="http://www.w3.org/2000/svg" version="1.1" viewBox="0 0 544 542">
  <defs>
    <style>
      .cls-1 {
        fill: #ed1d25;
        stroke-width: 0px;
      }
    </style>
  </defs>
  <path class="cls-1" d="M269.6,16.1h10c4.6,1.9,9.1,3.9,13.1,7,7.8,6,15.8,11.6,23.6,17.6,2.6,2,5,2.6,8.2,1.7,10-2.7,20-5.1,30-7.5,13.8-3.4,24.1,1,31.4,13.1,5.2,8.7,10.5,17.3,15.6,26.1,1.8,3.1,4,4.4,7.5,4.9,11,1.5,22,3.1,33,5,10.8,1.8,18.6,9.7,20.5,20.5s3.5,21.7,4.9,32.5c.5,3.8,2,6.3,5.4,8.2,8.8,5,17.5,10.3,26.1,15.6,11.6,7,16,17.5,12.8,30.6-2.2,9.2-4.2,18.5-7,27.6-1.6,5.4-.4,9.2,2.7,13.6,7.9,11.2,18,21,22.9,34.2v10c-2.1,6.6-6.2,12-10.3,17.5-4.9,6.5-9.6,13.2-14.6,19.6-1.8,2.3-2.3,4.5-1.5,7.4,2.7,10.1,5.1,20.3,7.6,30.5,3.3,13.8-1,24.1-13.1,31.4-8.6,5.1-17,10.4-25.7,15.3-3.4,1.9-4.9,4.4-5.4,8.2-1.4,10.9-3.1,21.7-4.9,32.5s-9.7,18.6-20.5,20.5c-11,1.9-22,3.5-33,5-3.4.5-5.7,1.9-7.5,4.9-5.1,8.9-10.5,17.8-15.9,26.6-7,11.6-17.5,16-30.6,12.8-9.5-2.3-19.1-4.5-28.5-7.2-4.6-1.3-8-.4-11.9,2.4-11.4,8.2-21.6,18.3-35,23.5h-10c-4.6-1.8-9.1-3.9-13.1-7-7.9-6.1-16.1-11.8-24-17.9-2.4-1.8-4.5-2.2-7.4-1.5-10.3,2.7-20.6,5.2-31,7.7-13.1,3.2-23.6-1.2-30.6-12.8-5.2-8.7-10.6-17.3-15.6-26.2-1.9-3.4-4.4-4.9-8.2-5.4-10.9-1.5-21.7-3.1-32.5-4.9s-18.6-9.7-20.5-20.5c-1.8-10.8-3.5-21.7-4.9-32.5-.5-3.8-2.1-6.3-5.4-8.2-8.8-5-17.5-10.4-26.2-15.6-11.6-7-16-17.5-12.8-30.6,2.3-9.4,4.4-18.8,7.1-28,1.5-5,.4-8.6-2.6-12.8-8.1-11.3-18.1-21.3-23.2-34.6v-10c1.8-4.6,3.9-9.1,7-13.1,6.1-7.9,11.8-16.1,17.9-24,1.8-2.4,2.2-4.5,1.5-7.4-2.7-10.1-5.1-20.3-7.6-30.5-3.4-13.8.9-24.1,13.1-31.3,8.7-5.2,17.4-10.6,26.2-15.6,3.3-1.9,4.5-4.4,5-8,1.5-10.9,3.1-21.7,4.9-32.5s9.7-18.7,20.5-20.5,21.7-3.5,32.5-4.9c3.8-.5,6.3-2,8.2-5.4,5-8.8,10.4-17.5,15.6-26.2,7-11.6,17.5-16,30.6-12.8,9.4,2.3,18.8,4.4,28.1,7.1,5,1.5,8.6.4,12.8-2.5,11.5-8,21.4-18.2,34.7-23.2ZM360.8,484.2c2.7.3,3.4-1.8,4.4-3.5,7-11.6,14-23.1,20.8-34.7,1.6-2.7,3.4-4,6.6-4.4,12.9-1.7,25.6-4,38.5-5.6,5.1-.6,6.9-2.7,7.6-7.7,1.6-13,3.9-26,5.7-39,.4-2.8,1.7-4.4,4-5.8,11.6-6.9,23.1-14,34.8-20.7,3.5-2,4-4.2,3.1-7.7-3.3-12.9-6.4-25.9-9.8-38.7-.9-3.3-.2-5.6,1.7-8.2,8.2-10.9,16.2-22,24.4-32.9,1.8-2.4,1.9-4.1,0-6.5-8.1-10.8-16-21.7-24.1-32.5-2.2-2.9-2.9-5.5-1.9-9.1,3.4-12.5,6.2-25.2,9.6-37.7,1-3.9.5-6.3-3.4-8.5-11.6-6.6-22.9-13.7-34.3-20.5-2.3-1.4-3.7-2.9-4-5.7-1.8-13-4-26-5.7-39-.6-4.9-2.4-7.1-7.5-7.7-13-1.6-26-3.9-39-5.7-3.1-.4-4.6-1.9-6.1-4.3-6.7-11.3-13.7-22.5-20.2-33.9-2.1-3.7-4.3-4.7-8.4-3.6-12.2,3.3-24.6,6-36.8,9.4-4.3,1.2-7.4.5-11-2.2-10.1-7.8-20.7-15.2-30.8-23-3.3-2.5-5.5-2.3-8.6.1-10.2,7.8-20.7,15.2-30.8,23-3.4,2.6-6.4,3.2-10.5,2.1-12.4-3.3-24.9-6.2-37.2-9.5-3.8-1-6-.2-8.1,3.4-6.3,11-13.3,21.6-19.4,32.6-2.4,4.4-5.7,5.9-10.2,6.5-12.2,1.7-24.3,3.8-36.5,5.2-4.8.6-6.2,3-6.8,7.2-1.8,13-4,26-5.7,39-.4,3-1.8,4.7-4.3,6.1-11.6,6.8-22.9,13.9-34.5,20.5-3.7,2.1-4.2,4.4-3.3,8.1,3.4,12.9,6.4,25.9,9.8,38.7.8,3.1.2,5.3-1.6,7.8-8.1,10.8-16,21.7-24.2,32.4-2.2,2.9-2.3,4.9,0,7.8,7.7,10,14.9,20.5,22.8,30.4,3.3,4.1,3.8,7.8,2.4,12.7-3.3,11.7-5.8,23.6-9,35.3-1.1,4.1-.6,6.6,3.5,8.9,11.4,6.5,22.6,13.5,33.9,20.2,2.5,1.5,3.9,3.1,4.3,6.1,1.8,12.9,4,25.6,5.6,38.5.6,5.1,2.6,7.3,7.8,7.9,12.2,1.4,24.4,3.5,36.6,5.1,4,.5,6.8,2.1,9,5.9,6.2,11,13.1,21.6,19.4,32.6,2.2,3.9,4.5,4.9,8.8,3.8,12-3.3,24.2-6,36.3-9.2,4.4-1.2,7.7-.7,11.4,2.2,9.8,7.7,20.2,14.8,30,22.5,3.8,3,6.3,2.6,9.9-.1,10.3-7.9,20.9-15.5,31.2-23.3,2.6-2,5-2.6,8.2-1.6,7.5,2.2,15.1,3.9,22.7,5.8,6.3,1.6,12.6,3.2,18.9,4.7Z"/>
  <path class="cls-1" d="M117.5,270.7c-.7,71.5,47.5,136.5,118.5,153.6,60,14.4,112.4-1.4,154.6-46.4,30.8-32.8,43.8-72.9,40.8-117.9-.6-9.1-2.6-18.1-5.1-26.9-.8-2.6-.3-4.3,1.6-6.2,5-4.8,10-9.8,14.8-14.8,2.8-2.9,3.9-1.8,5,1.3,4.2,12.5,7.3,25.3,8.8,38.4,4,37.1-2.2,72.5-20,105.3-28.3,52-71.5,84.8-130,94.8-66.3,11.4-122.8-9-168.2-58.3-27.1-29.4-42.3-64.7-45.6-104.8-4.9-60.4,15.2-111.4,59.6-152.4,29.5-27.4,65-42.9,105.4-46.4,54.2-4.8,100.9,12.3,141.2,48.2,5.3,4.7,5.2,4.6,0,9.2-3.4,3-6.7,6.1-9.6,9.5-2.8,3.3-4.9,3.3-8,.3-15.1-14.5-32.6-25.3-52.2-32.5-38.8-14.2-77.6-13.9-115.4,2.5-50.8,22-81.8,60.8-93.5,114.9-2.1,9.9-3.1,20-2.7,28.6Z"/>
  <path class="cls-1" d="M185.2,223.8c4.3-.3,7.7,2.1,10.9,5.3,24.7,24.8,49.5,49.4,74.1,74.3,3.7,3.8,5.5,3.3,8.9-.2,44.4-44.6,89-89.1,133.4-133.7,3.6-3.6,7.4-6.2,12.7-5.6,4.7.4,8.3,2.6,10.2,6.9,1.9,4.4,1.8,8.8-1.1,12.8-1.1,1.5-2.4,2.7-3.7,4-48.2,48.2-96.3,96.3-144.5,144.5-8.6,8.6-14.5,8.6-23.3-.1-28.4-28.4-56.8-56.8-85.2-85.1-3.1-3-5.4-6.2-5.3-10.8.4-7.3,5.3-12.2,12.9-12.3Z"/>
</svg>