<?xml version="1.0" encoding="UTF-8"?>
<svg id="Layer_1" data-name="Layer 1" xmlns="http://www.w3.org/2000/svg" version="1.1" viewBox="0 0 595.3 560.5">
  <defs>
    <style>
      .cls-1 {
        fill: #ed1d25;
        stroke-width: 0px;
      }
    </style>
  </defs>
  <path class="cls-1" d="M310.5,24.1c5.3,2.6,11.2,2.1,16.8,3.7,51.1,14.8,81.8,48.4,92.7,100.2,2,9.6,1.7,9.7,11.7,9.7,24.3,0,48.6.4,72.8-.2,14.7-.4,22.6,11.9,22.6,22.8-.2,117.2-.1,234.4-.2,351.7,0,14.5-8.4,22.8-23,22.8H90.9c-14.5,0-22.9-8.4-22.9-23V160.1c0-14.2,8.3-22.5,22.6-22.5,25.6,0,51.2-.1,76.8,0,3.4,0,5.2-.3,5.7-4.6,2.3-18.9,8.6-36.4,19.2-52.3,20-30,47.7-48.3,83.2-54.9,2.7-.5,5.6,0,8-1.9,9.1.2,18.1.2,27,.2ZM506.1,336.1c0-57.7,0-115.4.1-173.1,0-4.1-1-5.4-5.2-5.3-22.6.2-45.2.1-67.8.1q-11,0-11,10.8c0,10.3.2,20.6-.5,30.9-.4,6.5-5.6,10.6-10.8,10-5.8-.6-9.6-5.2-9.6-11.9,0-11.8-.1-23.6,0-35.4,0-3.4-.9-4.6-4.5-4.6-66.5.1-133,.2-199.5.1-3.9,0-4.7,1.4-4.6,4.9.2,11.1.1,22.3.1,33.4,0,2.9-.3,5.7-2.1,8-2.8,3.5-6.3,5.3-10.9,3.9-4.9-1.4-7.7-5.1-7.8-10.8-.1-11.6-.2-23.3.1-34.9.1-3.8-1.2-4.7-4.8-4.7-24.6.2-49.2.3-73.8.2-3.8,0-5.3,1.1-5.2,5.1.2,11.4.6,22.9.7,34.4,0,103.5,0,207,.1,310.4,0,8.2-1,7.3,7,7.3,48.4-.4,96.7-.1,145.1-.5,86-.7,171.9-.3,257.9-.3,7.9,0,7,.8,7-6.8.1-57.1,0-114.1,0-171.2ZM296.8,137.8h97.2c1.2,0,2.3-.1,3.5,0,2.2.1,3-.9,2.6-3.1-1.4-6.1-2.3-12.4-4.2-18.4-6.5-19.9-17.7-36.6-34.2-49.7-24.7-19.5-52.9-26.9-83.6-21-44.8,8.6-76.2,41.6-84,86.2-.9,5.4-.5,5.9,5.1,5.9,32.5.1,65.1.1,97.6.1Z"/>
  <path class="cls-1" d="M323,437.7c-.4-2-2.1-2.9-3.4-4.1-27.7-26.1-49.4-56.4-65.1-91-.6-1.2-1.2-2.4-1.6-3.6-1.5-5.9,1.1-11.4,6.1-13.2,5.5-2,10.6.2,13.5,6.3,8.7,18.4,18.9,35.8,31.1,52.1,18.6,24.9,40.8,45.9,68.4,60.6,15.5,8.3,32.2,13,49.6,15.3,7.1,1,11.4,5.9,10.4,11.5-1.3,6.8-6.6,9.8-14.1,8.9-22-2.7-42.6-9.6-62-20.3-3.6-2-7.5-1.2-11.2-.9-21,2-41.8.1-62.2-4.3-26.8-5.7-50.4-18-68.7-38.7-15.5-17.5-24.7-38.4-29.7-61.1-3.7-16.8-5.3-33.8-4.8-50.9.5-16.2,1.9-32.4,5.7-48.3,1.4-6.1,5.1-9.3,11.2-9.2,46.1.8,89.6,9.9,127.2,38.7,26,19.9,44,45.8,56,76.1,7.9,20,13.1,40.6,14.5,62.2.4,6.3-3.2,11.1-9.3,11.9-5.5.7-10.5-3.5-11-9.6-1.7-20.1-5.6-39.7-13.3-58.4-20.4-50.1-57.1-81.2-109.5-94-13.9-3.4-28-5.2-42.2-6-3.4-.2-4.7.9-5.2,4.1-2.6,19.3-3.4,38.6-1.6,58.1,1.5,17.2,5.5,33.6,12.8,49.3,9.7,20.8,24.9,36.3,45.5,46.2,18.8,9,38.9,13,59.8,13.1.8-.2,2,.3,3.1-.8Z"/>
</svg>